<svg xmlns="http://www.w3.org/2000/svg" viewBox="0 0 940.08 833.59">
  <defs>
    <style>
      .a {
        fill: #ffbd42;
      }

      .b {
        fill: #169390;
      }
    </style>
  </defs>
  <g>
    <path class="a" d="M790.89,660.7c-14.67,4.25-29.11,9.17-43.43,14.46a725.82,725.82,0,0,0-89,40.06q-32.93,17.47-64.33,37.57c-23.5,15-46.34,30.94-68.31,48.09Q510.37,813,496,826.37c-5.05,4.69-10.18,9.25-16.26,12.63a40.7,40.7,0,0,1-14.64,5.11c-6,.72-11.39-1.11-14.78-6.55a31.82,31.82,0,0,1-3.26-7.32,81.13,81.13,0,0,1-3.64-23.78,99.45,99.45,0,0,1,6.18-35,217.5,217.5,0,0,1,21.37-42.13,394.2,394.2,0,0,1,36-47.2c11-12.5,22.44-24.55,34.5-36,11.82-11.21,24.08-21.91,36.68-32.25,23.52-19.3,48.48-36.59,73.82-53.36,12.32-8.15,24.55-16.42,36.81-24.66.93-.62,1.76-1.41,3.36-2.71a125.7,125.7,0,0,0-16.58,3.33,308.65,308.65,0,0,0-56.5,21c-9.8,4.79-19.48,9.83-29.07,15-6.05,3.26-11.79,7.09-17.76,10.5a176.82,176.82,0,0,1-36.26,16,14.25,14.25,0,0,1-17.52-7.85,35.78,35.78,0,0,1-2.34-20.2,96,96,0,0,1,8.33-25.25,236.88,236.88,0,0,1,29.83-46.53A316.64,316.64,0,0,1,605,449.81c16.64-13.09,34-25.1,51.7-36.73q21.45-14.13,42.95-28.16c5.62-3.67,11.33-7.22,17-10.87a23.56,23.56,0,0,0,2.59-2.22l1.25-.36a3.87,3.87,0,0,0-.46-.42,9.7,9.7,0,0,0-.8.77,27.45,27.45,0,0,0-4.39.59c-7.37,2.26-14.69,4.7-22.06,6.95-17.51,5.34-34.49,12.08-51.31,19.23-8,3.41-16,7-24.05,10.28a151.93,151.93,0,0,1-16.62,5.77c-8.87,2.42-16.28-1-20-9.08a31.61,31.61,0,0,1-2.37-17.72,110.36,110.36,0,0,1,13.3-38.8c7.23-13.1,15.44-25.58,23.91-37.89,3.6-5.24,7.78-10.1,11.86-15C644,276.36,662.3,258.37,681,240.7c15.2-14.4,32.43-26,50.33-36.71a648.29,648.29,0,0,1,66-34.4,823.05,823.05,0,0,1,98.87-37c18.44-5.61,37-10.71,55.8-15.12,16.15-3.78,32.38-7.23,48.77-9.81,9.94-1.56,19.85-3.26,29.8-4.68q15.69-2.22,31.43-4c8.49-1,17-1.59,25.54-2.32,10.86-.93,21.72-1.85,32.59-2.7q8.78-.69,17.58-1.11c9.89-.49,19.8-.66,29.67-1.38,15.59-1.15,31.2-.87,46.81-.93,6.54,0,13.1.08,19.63.42,6,.32,12,1,18,1.62,5.83.63,11.66,1.25,17.45,2.19,20.37,3.29,40.55,7.28,59.89,14.87a117.1,117.1,0,0,1,35.47,21.64c7,6.24,11.31,14,11.8,23.67a49.5,49.5,0,0,1-2.72,19.79,38.4,38.4,0,0,1-11,16c-8.5,7.5-18.21,13.15-28,18.63-14.23,7.93-29,14.74-43.73,21.68-17.91,8.45-35.63,17.26-52.85,27A85.86,85.86,0,0,0,1218.58,273a118.68,118.68,0,0,0-14.7,17.84c-3.66,5.66-5.44,11.89-6.57,18.34-.7,4,.34,8,1.74,11.82,3.16,8.63,8.85,15.32,16.16,20.73a85.37,85.37,0,0,0,17.43,10,295.24,295.24,0,0,0,51.28,16.07c12.12,2.7,24.18,5.57,35.78,10a179.15,179.15,0,0,1,32.85,16.3,81.07,81.07,0,0,1,9.44,7.52c3.27,2.88,6.33,6,9.47,9a39.67,39.67,0,0,1,11.66,22.92,42.24,42.24,0,0,1,0,10.54,63.68,63.68,0,0,1-3.29,15.21A132.68,132.68,0,0,1,1364,491.21c-5.66,8.16-11.47,16.15-18.45,23.23-3.88,3.94-7.91,7.76-12.12,11.36a276.13,276.13,0,0,1-49.16,33.13c-30.41,16.36-62.47,28.63-95.43,38.67-20.54,6.26-41.37,11.39-62.37,15.75-12.14,2.53-24.39,4.5-36.64,6.48q-16.36,2.64-32.83,4.73c-7.82,1-15.68,1.58-23.52,2.39-2.84.29-5.66.69-8.49,1-2.27-5.22-4.59-10.43-6.8-15.67q-5.67-13.44-11.24-26.93c-.89-2.16-1.84-4.32-1.69-6.77.2-3.18.25-6.37.52-9.54.5-5.85,1.13-11.68,1.69-17.52.76-8,1.48-16,2.26-24a7.09,7.09,0,0,1,.56-1.67,5.1,5.1,0,0,1,1.1-.59c12-2.13,24.07-4.36,36.14-6.34,9.72-1.6,9.75-1.47,18.23-6.46q17.78-10.47,35.53-21c.56-.34,1-.8,1.78-1.35-1.62-3.21-3.88-5.92-5.65-8.92s-4.39-5.47-5.3-9.11a16.06,16.06,0,0,1,2-.72c4.93-1,9.86-1.94,14.81-2.8,7.6-1.33,15.2-2.62,22.82-3.8a5.9,5.9,0,0,0,4.14-2.46c1.59-2.16,3.39-4.16,5-6.32a13.24,13.24,0,0,0,1.21-2.64l4.53-5.85a5.82,5.82,0,0,0,1.79-.78,6.07,6.07,0,0,0,1.82-5q-.29-8.28-.48-16.58c-.08-3.52,0-7.05-.17-10.57a11.17,11.17,0,0,1,1.4-6.26c1.4-2.47,2.68-5,3.91-7.33a9.21,9.21,0,0,0-5.35-6,75.79,75.79,0,0,1-8.78-4.87q-21.22-14-42.33-28.16c-.93-.62-1.76-1.41-2.7-2.17,2.73-10.07,6.93-19.41,10-29.13-.65-.84-1.11-1.53-1.67-2.14-3.94-4.35-8-8.62-11.83-13-11.81-13.52-23.61-27.05-35.27-40.68a17.45,17.45,0,0,0-8.17-5.5c-9.41-3-18.77-6.23-28.15-9.36-7.15-2.39-14.32-4.73-21.45-7.21-1.69-.58-3.65-.8-5-2.76a27.46,27.46,0,0,1,1-3.1c2.22-5.07,4.42-10.15,6.79-15.15,6.74-14.24,13.58-28.44,20.34-42.68.62-1.31,1.79-2.52,1.1-4.52-3.33-.36-6.79-.76-10.26-1.11-5.83-.58-11.69-1-17.5-1.76a11.37,11.37,0,0,0-8.46,2c-18.56,12.68-37.2,25.24-55.8,37.87a48.88,48.88,0,0,0-3.87,3.19c-3.63,1.36-6.74,3.64-9.88,5.81-9.48,6.56-18.86,13.26-28.27,19.91a12.09,12.09,0,0,0-1.31.76c-22.94,17-46.55,33-70.49,48.52a10.29,10.29,0,0,0-4.43,6.3c-4.6,15.6-9.17,31.21-14,46.76q-12.87,41.82-26,83.57a11.48,11.48,0,0,0,.25,8.22c4.74,12,9.18,24.14,13.87,36.17a11,11,0,0,1,.18,8.23c-6.07,17.06-11.95,34.19-18,51.26a12.88,12.88,0,0,0-.41,7.35q3.92,18.45,7.52,37,5.94,30.36,11.7,60.75C789.35,650.44,790.06,655.58,790.89,660.7Z" transform="translate(-443.39 -90.5)"/>
    <path class="b" d="M1142.17,453.37A13.24,13.24,0,0,1,1141,456c-1.6,2.16-3.4,4.16-5,6.32a5.9,5.9,0,0,1-4.14,2.46c-7.62,1.18-15.22,2.47-22.82,3.8-5,.86-9.88,1.84-14.81,2.8a16.06,16.06,0,0,0-2,.72c.91,3.64,3.54,6.14,5.3,9.11s4,5.71,5.65,8.92c-.73.55-1.22,1-1.78,1.35q-17.76,10.5-35.53,21c-8.48,5-8.51,4.86-18.23,6.46-12.07,2-24.1,4.21-36.14,6.34a5.1,5.1,0,0,0-1.1.59,7.09,7.09,0,0,0-.56,1.67c-.78,8-1.5,16-2.26,24-.56,5.84-1.19,11.67-1.69,17.52-.27,3.17-.32,6.36-.52,9.54-.15,2.45.8,4.61,1.69,6.77q5.58,13.49,11.24,26.93c2.21,5.24,4.53,10.45,6.8,15.67,1.7,4.2,3.36,8.41,5.11,12.59,6.36,15.16,12.68,30.34,19.19,45.43a16.9,16.9,0,0,1,1.23,8.8q-1.54,15-2.91,30.05c-1.25,14-2.51,28.06-3.54,42.11-.44,6-.28,12.08-.45,18.12a13.28,13.28,0,0,0,1.54,5.79c1.8,4.15,3.6,8.32,5.62,12.36a6.75,6.75,0,0,1,.06,6.2q-8,18.77-15.69,37.63c-3.29,8.08-6.36,16.25-9.54,24.37-.24.61-.53,1.2-.74,1.65-1.74.94-3.14,0-4.55-.32-28.93-5.89-57.84-11.86-86.77-17.71a15.53,15.53,0,0,1-7.1-3.36c-35-28.85-70.26-57.3-106.13-85-3.58-2.77-7.24-5.45-11.15-8.38-1.06-5.68-2.17-11.6-3.25-17.53q-4.8-26.24-9.57-52.47-2.26-12.37-4.61-24.74a24.31,24.31,0,0,0-.88-2.83c-.83-5.13-1.54-10.27-2.51-15.37q-5.77-30.39-11.7-60.75-3.63-18.51-7.52-37a12.88,12.88,0,0,1,.41-7.35c6-17.07,11.92-34.2,18-51.26a11,11,0,0,0-.18-8.23c-4.69-12-9.13-24.16-13.87-36.17a11.48,11.48,0,0,1-.25-8.22q13.11-41.74,26-83.57c4.78-15.55,9.35-31.16,14-46.76a10.29,10.29,0,0,1,4.43-6.3c23.94-15.53,47.55-31.54,70.49-48.52a12.09,12.09,0,0,1,1.31-.76,16.91,16.91,0,0,1,.34,2c.24,5.7.44,11.39.67,17.09.22,5.53.48,11,.67,16.58a7,7,0,0,1-.4,1.79l-4.17,1c-.56,3.26-1.1,6.39-1.64,9.51q-.85,4.95-1.7,9.86c-3.1,2.07-6.58,2.85-9.81,4.18a20,20,0,0,0-2.32,1.39c4.42,4.42,8.51,8.61,12.71,12.7,3.72,3.62,7.57,7.12,11.36,10.67a.74.74,0,0,0,.46.18c.13,0,.25-.15.53-.35-1.58-2.9-3.22-5.8-4.75-8.75s-3.49-5.67-4.25-9.31l6.53-4.21c.75-5.39,1.49-10.84,2.22-16.12l2.73-1.36c.3-2.6.7-5.25.89-7.9.54-7.36,1.06-14.72,1.45-22.09a20.33,20.33,0,0,1,4.24-11.56c5.76-7.64,11.32-15.42,16.93-23.16,1.87-2.57,3.64-5.21,5.46-7.82a48.88,48.88,0,0,1,3.87-3.19c18.6-12.63,37.24-25.19,55.8-37.87a11.37,11.37,0,0,1,8.46-2c5.81.77,11.67,1.18,17.5,1.76,3.47.35,6.93.75,10.26,1.11.69,2-.48,3.21-1.1,4.52-6.76,14.24-13.6,28.44-20.34,42.68-2.37,5-4.57,10.08-6.79,15.15a27.46,27.46,0,0,0-1,3.1c1.31,2,3.27,2.18,5,2.76,7.13,2.48,14.3,4.82,21.45,7.21,9.38,3.13,18.74,6.33,28.15,9.36a17.45,17.45,0,0,1,8.17,5.5c11.66,13.63,23.46,27.16,35.27,40.68,3.86,4.42,7.89,8.69,11.83,13,.56.61,1,1.3,1.67,2.14-3,9.72-7.23,19.06-10,29.13.94.76,1.77,1.55,2.7,2.17q21.13,14.11,42.33,28.16a75.79,75.79,0,0,0,8.78,4.87,9.21,9.21,0,0,1,5.35,6c-1.23,2.32-2.51,4.86-3.91,7.33a11.17,11.17,0,0,0-1.4,6.26c.17,3.52.09,7.05.17,10.57q.2,8.3.48,16.58a6.07,6.07,0,0,1-1.82,5,5.82,5.82,0,0,1-1.79.78,3.07,3.07,0,0,0-.82-.56q-10.94-2.91-21.87-5.75a7.79,7.79,0,0,0-1.88,0c.08.85.16,1.34.17,1.84.11,2.76,1.66,4,4.25,4.76C1131.83,449.43,1137,451.49,1142.17,453.37ZM992.35,219.23a19,19,0,0,0-1.61,1,123.72,123.72,0,0,0-20,19,255.51,255.51,0,0,0-28,41.13,125.21,125.21,0,0,0-7.22,14.94c-4.12,10.67-1.78,19.18,7.41,26.29.86.66,1.64,1.68,3.3,1.24C955.48,285.82,972.88,252.25,992.35,219.23ZM941.24,456.52c-3.33,6.79-5.64,13.19-6,20.16a24.13,24.13,0,0,0,5.61,17.25,71.31,71.31,0,0,0,24.48,18.95c10,4.89,20.56,8.12,31.27,11a16.57,16.57,0,0,0,3,.54,6.29,6.29,0,0,0,1.78-.45c-.83-1.86-2.37-2.27-3.67-2.92a154,154,0,0,1-23-14.43,83.08,83.08,0,0,1-13.9-13.07,84.93,84.93,0,0,1-12.79-21C945.74,467.5,943.68,462.37,941.24,456.52Zm65.57-59.72a31.88,31.88,0,0,0,3.91,0c10.32-1.28,20.63-2.62,30.94-3.95,2.32-.29,3-1.12,2.56-3.3-1.09-5.83-4.62-9.62-10.08-11.54-12.31-4.33-24,4.17-27.28,12.91C1006.16,392.77,1005.59,394.76,1006.81,396.8Z" transform="translate(-443.39 -90.5)"/>
    <path class="b" d="M892.29,855.43C826.48,876.92,762.18,899.22,698,921.8c-2.66.94-5.41,1.58-7.88,2.29-.45-.3-.65-.37-.7-.49a.74.74,0,0,1,.09-.49c23-47.94,46.29-95.72,68.36-144.11,2.25-.11,3.64,1.25,5.17,2.13,16.29,9.37,32.53,18.84,48.83,28.2q38.2,21.95,76.46,43.78C889.3,853.68,890.3,854.27,892.29,855.43Z" transform="translate(-443.39 -90.5)"/>
    <path class="b" d="M693.11,794.89q-12.36,55.92-24.73,111.84a11.16,11.16,0,0,1-.76,1.84,2.79,2.79,0,0,1-.55-.27,3.79,3.79,0,0,1-.65-.74C656,889,645.49,870.5,634.07,852.83a6.51,6.51,0,0,1,.07-.79,1.2,1.2,0,0,1,.23-.45c1-1.08,2.09-2.17,3.17-3.23l54.91-53.83Z" transform="translate(-443.39 -90.5)"/>
  </g>
</svg>
