<?xml version="1.0" encoding="utf-8"?>
<!-- Generator: Adobe Illustrator 16.0.0, SVG Export Plug-In . SVG Version: 6.00 Build 0)  -->
<!DOCTYPE svg PUBLIC "-//W3C//DTD SVG 1.1//EN" "http://www.w3.org/Graphics/SVG/1.1/DTD/svg11.dtd">
<svg version="1.1" id="Layer_1" xmlns="http://www.w3.org/2000/svg" xmlns:xlink="http://www.w3.org/1999/xlink" x="0px" y="0px"
	 width="100px" height="100px" viewBox="0 0 100 100" enable-background="new 0 0 100 100" xml:space="preserve">
<g>
	<g>
		<g>
			<radialGradient id="SVGID_1_" cx="47.353" cy="37.9751" r="49.898" gradientUnits="userSpaceOnUse">
				<stop  offset="0" style="stop-color:#929497"/>
				<stop  offset="0.6727" style="stop-color:#404041"/>
				<stop  offset="1" style="stop-color:#231F20"/>
			</radialGradient>
			<path fill="url(#SVGID_1_)" d="M63.502,62.532c-0.76,0.728-1.591,1.396-2.514,1.999c-2.895,1.903-6.143,2.838-9.375,2.896
				l-3.559,9.437c6.168,0.747,12.629-0.598,18.226-4.287c2.507-1.643,4.644-3.629,6.403-5.856L63.502,62.532z"/>
			<radialGradient id="SVGID_2_" cx="47.3496" cy="37.9702" r="49.9055" gradientUnits="userSpaceOnUse">
				<stop  offset="0" style="stop-color:#929497"/>
				<stop  offset="0.6727" style="stop-color:#404041"/>
				<stop  offset="1" style="stop-color:#231F20"/>
			</radialGradient>
			<path fill="url(#SVGID_2_)" d="M39.379,62.811c-1.052-0.973-2.013-2.084-2.832-3.337c-5.357-8.149-3.091-19.09,5.052-24.44
				c2.461-1.624,5.182-2.54,7.909-2.819l2.778-9.694c-5.467-0.202-11.051,1.221-15.973,4.455
				c-12.597,8.278-16.09,25.194-7.818,37.791c1.993,3.039,4.5,5.539,7.318,7.48L39.379,62.811z"/>
			<radialGradient id="SVGID_3_" cx="47.3516" cy="37.9683" r="49.9056" gradientUnits="userSpaceOnUse">
				<stop  offset="0" style="stop-color:#929497"/>
				<stop  offset="0.6727" style="stop-color:#404041"/>
				<stop  offset="1" style="stop-color:#231F20"/>
			</radialGradient>
			<path fill="url(#SVGID_3_)" d="M62.093,35.812c1.507,1.168,2.857,2.591,3.961,4.273c2.129,3.247,3.052,6.941,2.87,10.544
				l9.182,4.183c1.26-6.701,0.031-13.876-4.008-20.019c-2.434-3.708-5.629-6.617-9.238-8.682L62.093,35.812z"/>
		</g>
	</g>
	<radialGradient id="SVGID_4_" cx="49.3032" cy="40.7891" r="57.634" gradientUnits="userSpaceOnUse">
		<stop  offset="0" style="stop-color:#00A69C"/>
		<stop  offset="1" style="stop-color:#00423D"/>
	</radialGradient>
	<path fill="url(#SVGID_4_)" d="M91.936,60.654c-2.332-3.557-7.115-4.544-10.675-2.206c-1.077,0.708-1.921,1.648-2.507,2.714
		l-16.376-7.24c1.273-3.416,0.975-7.37-1.182-10.649c-1.487-2.26-3.623-3.832-5.987-4.656l5.001-17.525
		c1.701,0.312,3.506-0.007,5.058-1.02c3.214-2.11,4.099-6.422,1.993-9.63c-2.11-3.208-6.415-4.097-9.629-1.986
		c-3.208,2.104-4.098,6.415-1.993,9.623c0.818,1.239,1.967,2.13,3.246,2.636l-4.999,17.512c-3.021-0.675-6.299-0.181-9.091,1.649
		c-5.468,3.598-6.987,10.942-3.396,16.409c1.312,1.993,3.123,3.454,5.161,4.344l-7.025,19.065c-2.09-0.565-4.389-0.28-6.337,0.992
		c-0.506,0.345-0.968,0.741-1.377,1.163L18.166,71.045c1.228-1.975,1.279-4.559-0.078-6.624c-1.864-2.844-5.682-3.636-8.526-1.766
		c-2.831,1.863-3.624,5.682-1.76,8.519c1.865,2.838,5.682,3.631,8.52,1.761c0.37-0.233,0.695-0.507,0.994-0.807l13.649,10.806
		c-1.656,2.52-1.76,5.89,0,8.564c2.369,3.604,7.208,4.609,10.804,2.241c3.61-2.371,4.61-7.209,2.241-10.812
		c-0.812-1.248-1.93-2.169-3.188-2.761l7.032-19.058c3.252,0.987,6.889,0.578,9.954-1.436c1.768-1.161,3.117-2.726,4.026-4.492
		l16.369,7.24c-0.732,2.169-0.5,4.636,0.851,6.695c2.346,3.563,7.117,4.552,10.676,2.214C93.285,68.993,94.279,64.214,91.936,60.654
		z"/>
</g>
</svg>
